<svg viewBox="0 0 152 22" fill="#008600" xmlns="http://www.w3.org/2000/svg">
    <path d="M95.76 6.18699C92.112 6.18699 90.7006 7.13398 90.7006 8.22827C90.7006 9.049 91.2 9.5751 91.3303 9.70137C91.808 9.40675 93.176 8.64916 95.3474 8.64916C98.1051 8.64916 99.0823 9.91181 99.0823 11.2797V11.6795C92.6983 12.3319 89.4411 13.4893 89.4411 17.1931C89.4411 19.7184 91.3954 21.6124 94.1314 21.6124C96.8891 21.6124 98.4526 20.2235 99.1474 19.6132V21.3178H101.927V11.1745C101.949 7.89157 99.4949 6.18699 95.76 6.18699ZM99.0823 17.2352C97.8011 18.5189 96.4983 19.1502 94.8263 19.1502C93.2194 19.1502 92.3509 18.1401 92.3509 17.0879C92.3509 15.5727 93.6103 14.289 99.0606 13.7839V17.2352H99.0823ZM145.833 6.18699C142.185 6.18699 140.774 7.13398 140.774 8.22827C140.774 9.049 141.273 9.5751 141.403 9.70137C141.881 9.40675 143.249 8.64916 145.421 8.64916C148.178 8.64916 149.155 9.91181 149.155 11.2797V11.6795C142.771 12.3319 139.514 13.4893 139.514 17.1931C139.514 19.7184 141.469 21.6124 144.205 21.6124C146.962 21.6124 148.526 20.2235 149.221 19.6132V21.3178H152V11.1745C152 7.89157 149.546 6.18699 145.833 6.18699ZM149.155 17.2352C147.874 18.5189 146.571 19.1502 144.899 19.1502C143.293 19.1502 142.424 18.1401 142.424 17.0879C142.424 15.5727 143.683 14.289 149.134 13.7839V17.2352H149.155ZM55.9143 3.51438C54.9154 3.51438 54.0903 2.73574 54.0903 1.76771C54.0903 0.799679 54.9154 0 55.9143 0C56.9131 0 57.7166 0.799679 57.7166 1.76771C57.6949 2.73574 56.9131 3.51438 55.9143 3.51438ZM54.4594 21.3178V6.50265H57.3257V21.3178H54.4594ZM25.9269 15.1097C30.1829 15.1097 35.7851 14.4784 35.7851 10.1433C35.7851 7.97574 33.9177 6.18699 30.7691 6.18699C25.4709 6.18699 22.9303 9.78554 22.9303 14.1417C22.9303 18.3084 25.7097 21.6334 30.6606 21.6334C33.4183 21.6334 35.4811 20.8969 35.4811 19.3817C35.4811 18.6662 35.0034 18.098 34.8949 18.0138C34.6126 18.1822 33.136 19.1712 30.8343 19.1712C27.5989 19.1502 26.2526 17.13 25.9269 15.1097ZM25.9051 12.9632C26.0354 10.7746 27.4903 8.54394 30.6389 8.54394C32.0503 8.54394 32.8971 9.32257 32.8971 10.2696C32.8971 12.395 28.9234 12.9632 25.9051 12.9632ZM50.9851 20.8758C50.3989 21.0231 48.5531 21.6334 45.8606 21.6334C39.976 21.6334 37.696 18.4557 37.696 14.1838C37.696 8.77542 40.8663 6.18699 44.4491 6.18699C46.4469 6.18699 47.7714 6.79727 48.1406 6.96562V0.357751H50.9634V20.8758H50.9851ZM48.1623 9.46988C47.8149 9.25944 46.5771 8.64916 44.992 8.64916C42.3646 8.64916 40.5406 10.4169 40.5406 14.0786C40.5406 17.3404 42.2343 19.1502 45.8606 19.1502C46.7074 19.1502 47.4891 19.0239 48.1623 18.8345V9.46988ZM2.97486 13.8892C2.97486 10.4379 4.82057 8.64916 7.64343 8.64916C9.77143 8.64916 11.1611 9.42779 11.6171 9.70137C11.9646 9.3857 12.2469 8.81751 12.2469 8.22827C12.2469 7.2392 11.0526 6.18699 7.53486 6.18699C3.43086 6.18699 0 8.8596 0 13.9102C0 18.8556 3.10514 21.6124 7.20914 21.6124C9.66286 21.6124 11.6389 20.8548 12.2034 20.5602V17.8244C11.5737 18.2453 9.55429 19.1502 7.68686 19.1502C4.99429 19.1502 2.97486 17.3614 2.97486 13.8892ZM83.6869 13.7418C85.5326 11.7216 87.1828 9.32257 88.3554 6.37639L85.728 5.45044C84.056 9.72241 81.5371 12.6055 78.4971 14.9835V0.357751H75.6526V21.3178H78.4971V18.2243C79.6046 17.4667 80.5817 16.688 81.6457 15.741L84.2514 20.013C84.9029 21.0652 85.7714 21.6334 87.0743 21.6334C87.8126 21.6334 88.2251 21.4019 88.3989 21.3178L83.6869 13.7418ZM17.48 8.37558C17.48 6.92354 16.6331 6.18699 15.504 6.18699C15.2434 6.18699 14.9611 6.22908 14.6789 6.3343V21.3178H17.5234V12.5423C18.3269 10.6904 20.2594 8.96482 22.7783 8.96482V6.18699C20.064 6.18699 18.5223 7.44964 17.48 9.34362V8.37558ZM108.267 8.37558C108.267 6.92354 107.421 6.18699 106.291 6.18699C106.031 6.18699 105.749 6.22908 105.466 6.3343V21.3178H108.311V12.5423C109.114 10.6904 111.047 8.96482 113.566 8.96482V6.18699C110.851 6.18699 109.31 7.44964 108.267 9.34362V8.37558ZM118.234 8.43872V8.37558C118.234 6.92354 117.431 6.18699 116.302 6.18699C116.041 6.18699 115.759 6.22908 115.477 6.3343V21.3178H118.321V11.0482C119.168 9.93285 120.883 8.62811 122.403 8.62811C124.075 8.62811 124.901 9.68032 124.901 11.1955V21.2967H127.745V11.0482C128.722 9.7645 130.307 8.62811 131.827 8.62811C133.499 8.62811 134.325 9.68032 134.325 11.1955V21.2967H137.169V11.0482C137.169 8.24932 135.866 6.16594 132.349 6.16594C130.199 6.16594 128.614 7.28128 127.333 8.64916C126.898 7.66008 125.921 6.16594 122.925 6.16594C120.862 6.18699 119.385 7.21815 118.234 8.43872ZM60.8434 2.92514V17.2773C60.8434 20.1182 62.6674 21.6334 65.36 21.6334C66.6411 21.6334 67.792 21.3178 68.0526 21.2336V18.8556C67.8137 18.9187 67.032 19.1502 65.9897 19.1502C64.4046 19.1502 63.688 18.2032 63.688 16.9406V8.81751H67.64V6.50265H63.688V4.98747C63.688 3.53542 62.7977 2.79888 61.6469 2.79888C61.3863 2.77783 61.104 2.81992 60.8434 2.92514Z" fill="#008600"/>
    <path d="M152 4.27487C152 5.05623 151.403 5.61141 150.663 5.61141C149.923 5.61141 149.327 5.05623 149.327 4.27487C149.327 3.49352 149.923 2.93834 150.663 2.93834C151.403 2.93834 152 3.49352 152 4.27487ZM151.804 4.27487C151.804 3.61689 151.301 3.1234 150.663 3.1234C150.026 3.1234 149.522 3.61689 149.522 4.27487C149.522 4.93286 150.036 5.42635 150.663 5.42635C151.29 5.42635 151.804 4.93286 151.804 4.27487ZM151.023 4.93286C150.992 4.90202 150.972 4.85061 150.961 4.78893L150.92 4.57302C150.879 4.42909 150.807 4.38797 150.653 4.38797H150.386V4.93286H150.149V3.58604H150.725C151.023 3.58604 151.188 3.7197 151.188 3.96644C151.188 4.17206 151.033 4.28516 150.879 4.30572C151.002 4.32628 151.085 4.38797 151.116 4.5319L151.177 4.77865C151.188 4.84033 151.218 4.90202 151.259 4.93286H151.023ZM150.694 3.76082H150.375V4.21319H150.694C150.869 4.21319 150.961 4.13094 150.961 3.98701C150.961 3.83279 150.879 3.76082 150.694 3.76082Z" fill="#008600"/>
</svg>
